<svg id="Capa_1" enable-background="new 0 0 512 512" height="512" viewBox="0 0 512 512" width="512" xmlns="http://www.w3.org/2000/svg"><path d="m221 388h-60v-120h60z" fill="#e6f5fa"/><path d="m191 268h30v120h-30z" fill="#c8e1e6"/><path d="m296 335v-60c0-8.284 6.716-15 15-15s15 6.716 15 15v60z" fill="#c8e1e6"/><path d="m331 350h-40c-8.284 0-15-6.716-15-15s6.716-15 15-15h40c8.284 0 15 6.716 15 15s-6.716 15-15 15z" fill="#44505f"/><g fill="#ffcd14"><path d="m413.427 157.28c-3.839 0-7.678-1.464-10.606-4.393-5.858-5.858-5.858-15.355 0-21.213 17.545-17.545 17.545-46.095 0-63.64-5.858-5.858-5.858-15.355 0-21.213 5.857-5.857 15.355-5.857 21.213 0 29.241 29.243 29.241 76.823 0 106.066-2.929 2.928-6.768 4.393-10.607 4.393z"/><path d="m455.853 199.706c-3.839 0-7.678-1.464-10.606-4.394-5.858-5.858-5.858-15.355 0-21.213 19.831-19.832 30.753-46.199 30.753-74.246 0-28.046-10.922-54.414-30.754-74.246-5.858-5.857-5.858-15.355 0-21.213 5.857-5.858 15.355-5.858 21.213 0 25.498 25.498 39.541 59.399 39.541 95.459s-14.043 69.961-39.541 95.459c-2.929 2.929-6.768 4.394-10.606 4.394z"/><circle cx="371" cy="99.853" r="15"/></g><path d="m361 290h-340c-4.666 0-9.067-2.172-11.905-5.875-2.839-3.704-3.792-8.518-2.579-13.024l70-260c1.763-6.549 7.702-11.101 14.484-11.101h200c6.782 0 12.721 4.551 14.484 11.101l70 260c1.213 4.506.26 9.32-2.579 13.024-2.837 3.703-7.239 5.875-11.905 5.875z" fill="#ffeb50"/><path d="m305.485 11.101c-1.764-6.549-7.703-11.101-14.485-11.101h-100v290h170c4.666 0 9.067-2.172 11.905-5.875 2.839-3.704 3.792-8.518 2.579-13.024z" fill="#ffcd14"/><circle cx="191" cy="146" fill="#e6f5fa" r="75"/><path d="m266 146c0-41.421-33.579-75-75-75v150c41.422 0 75-33.578 75-75z" fill="#c8e1e6"/><path d="m191 236c-49.626 0-90-40.374-90-90s40.374-90 90-90 90 40.374 90 90-40.374 90-90 90zm0-150c-33.084 0-60 26.916-60 60s26.916 60 60 60 60-26.916 60-60-26.916-60-60-60z" fill="#5a6982"/><path d="m251 146c0 33.084-26.916 60-60 60v30c49.626 0 90-40.374 90-90s-40.374-90-90-90v30c33.084 0 60 26.916 60 60z" fill="#44505f"/><path d="m216 161h-25c-8.284 0-15-6.716-15-15v-25c0-8.284 6.716-15 15-15s15 6.716 15 15v10h10c8.284 0 15 6.716 15 15s-6.716 15-15 15z" fill="#ff733c"/><path d="m216 161c8.284 0 15-6.716 15-15s-6.716-15-15-15h-10v-10c0-8.284-6.716-15-15-15v55z" fill="#f55528"/><path d="m271 467h-160c-8.284 0-15-6.716-15-15 0-52.383 42.617-95 95-95s95 42.617 95 95c0 8.284-6.716 15-15 15z" fill="#ff733c"/><path d="m271 467c8.284 0 15-6.716 15-15 0-52.383-42.617-95-95-95v110z" fill="#f55528"/><path d="m336 512h-290c-5.523 0-10-4.477-10-10 0-27.57 22.43-50 50-50h210c27.57 0 50 22.43 50 50 0 5.523-4.477 10-10 10z" fill="#5a6982"/><path d="m296 452h-105v60h145c5.523 0 10-4.477 10-10 0-27.57-22.43-50-50-50z" fill="#44505f"/></svg>